<svg width="584" height="688" viewBox="0 0 584 688" fill="none" xmlns="http://www.w3.org/2000/svg">
<path d="M137.696 203.661C170.732 152.848 203.451 100.65 223.868 49.5647C232.523 27.9047 259.203 17.727 277.757 31.8617C390.13 117.464 558.667 282.937 558.667 437C558.667 476.12 552.027 509.183 540.993 536.993M74.187 303.66C45.7777 352.123 25.3333 397.437 25.3333 437C25.3333 540.563 100.186 613.96 161.381 649.383C175.401 657.5 189.049 640.57 181.692 626.137C165.493 594.353 149.778 553.31 149.778 520.333C149.778 474.62 184.608 437.883 209.487 414.327C215.868 408.287 225.867 408.38 231.4 415.207C241.67 427.883 251.94 443.93 262.21 456.917C268.24 464.54 279.47 463.867 284.76 455.713C317.63 405.06 325.253 340.43 327.023 292.123C327.557 277.543 344.62 270.38 354.403 281.203C397.197 328.55 452 405.313 452 470.333C452 530.863 418.077 595.207 388.73 637.383C380.127 649.743 389.58 666.51 403.96 662.033C421.113 656.697 439.55 648.69 457.51 637.383" stroke="white" stroke-width="50" stroke-linecap="round"/>
</svg>
